<svg width="23" height="23" viewBox="0 0 23 23" fill="none" xmlns="http://www.w3.org/2000/svg">
<path fill-rule="evenodd" clip-rule="evenodd" d="M9.33333 0C4.17868 0 0 4.17868 0 9.33333C0 14.488 4.17868 18.6667 9.33333 18.6667C11.4298 18.6667 13.3648 17.9755 14.9229 16.8085L20.3906 22.2762C20.9113 22.7969 21.7555 22.7969 22.2762 22.2762C22.7969 21.7555 22.7969 20.9113 22.2762 20.3906L16.8085 14.9229C17.9755 13.3648 18.6667 11.4298 18.6667 9.33333C18.6667 4.17868 14.488 0 9.33333 0ZM2.66667 9.33333C2.66667 5.65143 5.65143 2.66667 9.33333 2.66667C13.0152 2.66667 16 5.65143 16 9.33333C16 13.0152 13.0152 16 9.33333 16C5.65143 16 2.66667 13.0152 2.66667 9.33333Z" fill="#64748B"/>
</svg>
